<svg id="visual" viewBox="0 0 800 300" width="800" height="300" xmlns="http://www.w3.org/2000/svg" xmlns:xlink="http://www.w3.org/1999/xlink" version="1.1"><rect x="0" y="0" width="800" height="300" fill="#131115"></rect><defs><linearGradient id="grad1_0" x1="62.5%" y1="100%" x2="100%" y2="0%"><stop offset="-3.333333333333332%" stop-color="#131115" stop-opacity="1"></stop><stop offset="103.33333333333334%" stop-color="#131115" stop-opacity="1"></stop></linearGradient></defs><defs><linearGradient id="grad2_0" x1="0%" y1="100%" x2="37.5%" y2="0%"><stop offset="-3.333333333333332%" stop-color="#131115" stop-opacity="1"></stop><stop offset="103.33333333333334%" stop-color="#131115" stop-opacity="1"></stop></linearGradient></defs><g transform="translate(800, 300)"><path d="M-225 0C-217.3 -27.7 -209.5 -55.5 -199.6 -82.7C-189.6 -109.8 -177.4 -136.5 -158.4 -158.4C-139.4 -180.3 -113.6 -197.6 -86.1 -207.9C-58.6 -218.2 -29.3 -221.6 0 -225L0 0Z" fill="#A855F7"></path></g><g transform="translate(0, 0)"><path d="M225 0C218.9 27.8 212.7 55.6 203.3 84.2C193.8 112.8 180.9 142.2 159.1 159.1C137.3 176 106.5 180.5 78.5 189.4C50.4 198.3 25.2 211.7 0 225L0 0Z" fill="#A855F7"></path></g></svg>