<svg id="visual" viewBox="0 0 900 450" width="900" height="450" xmlns="http://www.w3.org/2000/svg" xmlns:xlink="http://www.w3.org/1999/xlink" version="1.1"><rect x="0" y="0" width="900" height="450" fill="#111827"></rect><path d="M0 173L90 173L90 273L180 273L180 242L270 242L270 210L360 210L360 166L450 166L450 248L540 248L540 217L630 217L630 238L720 238L720 195L810 195L810 177L900 177L900 207L900 451L900 451L810 451L810 451L720 451L720 451L630 451L630 451L540 451L540 451L450 451L450 451L360 451L360 451L270 451L270 451L180 451L180 451L90 451L90 451L0 451Z" fill="#9900ff"></path><path d="M0 308L90 308L90 222L180 222L180 297L270 297L270 329L360 329L360 235L450 235L450 284L540 284L540 244L630 244L630 240L720 240L720 281L810 281L810 305L900 305L900 322L900 451L900 451L810 451L810 451L720 451L720 451L630 451L630 451L540 451L540 451L450 451L450 451L360 451L360 451L270 451L270 451L180 451L180 451L90 451L90 451L0 451Z" fill="#8200d9"></path><path d="M0 366L90 366L90 289L180 289L180 316L270 316L270 349L360 349L360 379L450 379L450 363L540 363L540 324L630 324L630 337L720 337L720 293L810 293L810 356L900 356L900 336L900 451L900 451L810 451L810 451L720 451L720 451L630 451L630 451L540 451L540 451L450 451L450 451L360 451L360 451L270 451L270 451L180 451L180 451L90 451L90 451L0 451Z" fill="#6c00b4"></path><path d="M0 373L90 373L90 348L180 348L180 367L270 367L270 429L360 429L360 370L450 370L450 413L540 413L540 363L630 363L630 429L720 429L720 408L810 408L810 343L900 343L900 414L900 451L900 451L810 451L810 451L720 451L720 451L630 451L630 451L540 451L540 451L450 451L450 451L360 451L360 451L270 451L270 451L180 451L180 451L90 451L90 451L0 451Z" fill="#560090"></path></svg>